<svg xmlns="http://www.w3.org/2000/svg" viewBox="0 0 258 75"><svg width="258" height="40" viewBox="0 0 258 40" fill="none" xmlns="http://www.w3.org/2000/svg" y="0"><path fill-rule="evenodd" clip-rule="evenodd" d="M213.956 8.2247C211.726 8.2247 209.935 6.43355 209.935 4.13063C209.935 1.86427 211.762 0 214.029 0C216.295 0 218.159 1.79116 218.159 4.05752C218.159 6.36044 216.295 8.2247 213.956 8.2247ZM137.521 32.2774H130.868V4.27685H137.63V11.9532C137.63 11.9532 140.628 9.39444 144.539 9.39444C151.155 9.39444 155.067 14.9872 155.067 21.0918C155.067 27.3426 151.082 32.8257 144.758 32.8257C141.798 32.8257 139.604 31.985 137.521 29.9379V32.2774ZM116.356 32.8257C109.447 32.8257 104.695 28.622 104.695 21.0918C104.695 14.2927 109.557 9.39444 116.173 9.39444C122.643 9.39444 127.212 13.6713 127.212 21.6767L127.214 21.8712C127.216 21.9847 127.219 22.0878 127.221 22.1862C127.229 22.4608 127.236 22.6995 127.212 23.0292H111.421C112.006 25.6976 114.126 26.977 116.685 26.977C118.787 26.977 120.207 25.5797 121.343 24.1332L121.547 23.8699C121.547 23.8699 124.861 25.7811 126.416 26.7155L126.847 26.977C124.873 30.4862 121.071 32.8257 116.356 32.8257ZM74.7571 32.2774L66.2034 9.83309H73.368L77.8276 22.2615L81.9217 9.83309H87.3683L91.6817 22.3346L96.1048 9.83309H103.16L94.7157 32.2774H88.8305L84.6633 20.2145L80.6423 32.2774H74.7571ZM116.1 15.0969C118.22 15.0969 119.39 16.1204 120.194 18.2771H111.677C112.518 16.1935 113.797 15.0969 116.1 15.0969ZM143.004 15.6818C146.074 15.6818 148.304 18.0943 148.304 20.9456C148.304 24.1258 146.623 26.7943 143.296 26.7943C139.751 26.7943 137.448 24.5644 137.448 21.0918C137.448 17.8385 139.824 15.6818 143.004 15.6818ZM169.762 33.045C162.889 33.045 157.626 27.4157 157.626 21.1649C157.626 14.4389 162.999 9.39444 169.908 9.39444C176.707 9.39444 182.007 14.2927 182.007 21.0552C182.007 27.8909 177.072 33.045 169.762 33.045ZM169.871 15.7914C173.051 15.7914 175.245 18.0578 175.245 20.9456C175.245 24.4548 173.198 26.6115 169.835 26.6115C166.728 26.6115 164.425 24.272 164.425 21.2746C164.425 18.204 166.581 15.7914 169.871 15.7914ZM199.078 32.2774H193.01L183.616 9.83309H191.219L196.117 22.9561L200.723 9.83309H207.888L199.078 32.2774ZM217.392 9.83309H210.593V32.2774H217.392V9.83309ZM221.047 21.1649C221.047 27.4157 226.311 33.045 233.183 33.045C240.494 33.045 245.429 27.8909 245.429 21.0552C245.429 14.2927 240.128 9.39444 233.329 9.39444C226.421 9.39444 221.047 14.4389 221.047 21.1649ZM238.666 20.9456C238.666 18.0578 236.473 15.7914 233.293 15.7914C230.003 15.7914 227.846 18.204 227.846 21.2746C227.846 24.272 230.149 26.6115 233.256 26.6115C236.619 26.6115 238.666 24.4548 238.666 20.9456Z" fill="white" /><path d="M252.082 24.1816C254.385 24.1816 256.285 26.0825 256.285 28.3854C256.285 30.6883 254.385 32.5891 252.082 32.5891C249.779 32.5891 247.878 30.6883 247.878 28.3854C247.878 26.0825 249.779 24.1816 252.082 24.1816Z" fill="white" /><path fill-rule="evenodd" clip-rule="evenodd" d="M36.6502 34.4842C35.35 36.6512 32.2094 36.6511 30.9092 34.4842L12.7815 4.27127L48.8656 4.27127C51.4676 4.27127 53.0748 7.10989 51.7361 9.34111L36.6502 34.4842Z" fill="#FFD723" /><path fill-rule="evenodd" clip-rule="evenodd" d="M18.1277 34.4842C19.4279 36.6512 22.5685 36.6511 23.8687 34.4842L41.9964 4.27127L5.91239 4.27127C3.31037 4.27127 1.70317 7.10989 3.0419 9.34111L18.1277 34.4842Z" fill="white" /><path fill-rule="evenodd" clip-rule="evenodd" d="M12.7815 4.27124H41.9964L27.39 28.617L12.7815 4.27124Z" fill="#F6F6F6" /></svg><svg width="200" height="35" viewBox="0 0 200 35" fill="none" xmlns="http://www.w3.org/2000/svg" y="40"><path fill-rule="evenodd" clip-rule="evenodd" d="M166.41 6.39699C164.676 6.39699 163.282 5.00387 163.282 3.21271C163.282 1.44998 164.704 0 166.467 0C168.229 0 169.679 1.39312 169.679 3.15585C169.679 4.94701 168.229 6.39699 166.41 6.39699ZM101.786 25.1046V3.32644H107.046V9.29696C107.046 9.29696 109.377 7.30679 112.419 7.30679C117.565 7.30679 120.607 11.6567 120.607 16.4047C120.607 21.2664 117.508 25.5311 112.59 25.5311C110.287 25.5311 108.581 24.8772 106.961 23.285V25.1046H101.786ZM90.4989 25.5311C85.1255 25.5311 81.4294 22.2615 81.4294 16.4047C81.4294 11.1165 85.2108 7.30679 90.3568 7.30679C95.3891 7.30679 98.943 10.6332 98.943 16.8596L98.9441 17.0109C98.9455 17.099 98.9478 17.179 98.9499 17.2554V17.2555V17.2557V17.2558V17.2559V17.2561V17.2561V17.2562V17.2562C98.956 17.4697 98.9613 17.6553 98.943 17.9116H86.6608C87.1156 19.987 88.7647 20.9821 90.7548 20.9821C92.39 20.9821 93.4944 19.8953 94.3779 18.7702L94.5362 18.5655C94.5362 18.5655 97.1143 20.052 98.3239 20.7787L98.6587 20.9821C97.1234 23.7115 94.1666 25.5311 90.4989 25.5311ZM58.1444 25.1046L51.4915 7.64796H57.064L60.5326 17.3145L63.7169 7.64796H67.9531L71.308 17.3714L74.7481 7.64796H80.2353L73.6678 25.1046H69.0903L65.8492 15.7224L62.7218 25.1046H58.1444ZM90.2999 11.742C91.9489 11.742 92.8587 12.5381 93.4842 14.2155H86.8598C87.5137 12.595 88.5088 11.742 90.2999 11.742ZM111.225 12.1969C113.613 12.1969 115.348 14.0734 115.348 16.291C115.348 18.7645 114.04 20.84 111.453 20.84C108.695 20.84 106.904 19.1057 106.904 16.4047C106.904 13.8744 108.752 12.1969 111.225 12.1969ZM132.037 25.7017C126.692 25.7017 122.598 21.3233 122.598 16.4616C122.598 11.2303 126.777 7.30679 132.15 7.30679C137.439 7.30679 141.561 11.1165 141.561 16.3763C141.561 21.6929 137.723 25.7017 132.037 25.7017ZM132.122 12.2822C134.596 12.2822 136.301 14.0449 136.301 16.291C136.301 19.0204 134.709 20.6978 132.094 20.6978C129.677 20.6978 127.886 18.8782 127.886 16.5469C127.886 14.1587 129.563 12.2822 132.122 12.2822ZM154.838 25.1046H150.119L142.812 7.64796H148.726L152.536 17.8547L156.118 7.64796H161.69L154.838 25.1046ZM169.082 7.64796H163.794V25.1046H169.082V7.64796ZM171.926 16.4616C171.926 21.3233 176.02 25.7017 181.365 25.7017C187.051 25.7017 190.889 21.6929 190.889 16.3763C190.889 11.1165 186.767 7.30679 181.478 7.30679C176.105 7.30679 171.926 11.2303 171.926 16.4616ZM185.629 16.291C185.629 14.0449 183.923 12.2822 181.45 12.2822C178.891 12.2822 177.214 14.1587 177.214 16.5469C177.214 18.8782 179.005 20.6978 181.422 20.6978C184.037 20.6978 185.629 19.0204 185.629 16.291Z" fill="white" /><path d="M196.064 18.8079C197.855 18.8079 199.333 20.2863 199.333 22.0774C199.333 23.8686 197.855 25.347 196.064 25.347C194.272 25.347 192.794 23.8686 192.794 22.0774C192.794 20.2863 194.272 18.8079 196.064 18.8079Z" fill="#EDB91B" /><path fill-rule="evenodd" clip-rule="evenodd" d="M28.5057 26.821C27.4945 28.5064 25.0518 28.5064 24.0405 26.821L9.94117 3.32208L38.0065 3.32208C40.0303 3.32208 41.2804 5.52989 40.2391 7.26529L28.5057 26.821Z" fill="#EDB91B" /><path fill-rule="evenodd" clip-rule="evenodd" d="M14.0993 26.821C15.1106 28.5064 17.5533 28.5064 18.5646 26.821L32.6639 3.32208L4.59853 3.32208C2.57474 3.32208 1.32469 5.52989 2.36592 7.26529L14.0993 26.821Z" fill="white" /><path fill-rule="evenodd" clip-rule="evenodd" d="M9.94119 3.32202H32.6639L21.3034 22.2576L9.94119 3.32202Z" fill="#EEF0E7" /></svg></svg>