<svg aria-hidden="true" style="position: absolute; width: 0; height: 0; overflow: hidden;" version="1.1" xmlns="http://www.w3.org/2000/svg" xmlns:xlink="http://www.w3.org/1999/xlink">
<defs>
<symbol id="icon-deployment-triangle" viewBox="0 0 32 32">
<path d="M4.219 0.081c-0.962 0.256-1.706 0.969-2.044 1.975l-0.144 0.413-0.019 13.281c-0.013 8.906 0.006 13.419 0.050 13.7 0.131 0.85 0.475 1.5 1.044 1.962 0.487 0.4 0.931 0.544 1.644 0.55 1.044 0.012 0.669 0.206 6.875-3.594 2.044-1.256 6.681-4.094 10.306-6.306 7.319-4.475 7.294-4.456 7.725-5.337 0.125-0.244 0.256-0.619 0.294-0.831 0.194-1.056-0.406-2.256-1.462-2.944-0.219-0.137-4.162-2.394-8.769-5.013-4.606-2.625-8.994-5.119-9.75-5.55s-1.887-1.069-2.513-1.425c-0.625-0.356-1.313-0.706-1.531-0.781-0.481-0.163-1.275-0.206-1.706-0.1zM5.081 2.837c0.331 0.138 21.881 12.419 22.006 12.537 0.113 0.113 0.113 0.119-0.038 0.25-0.163 0.137-21.519 13.225-21.938 13.444-0.131 0.063-0.25 0.119-0.269 0.119s-0.031-5.95-0.031-13.219c0-7.269 0.013-13.219 0.031-13.219s0.125 0.038 0.237 0.087z"></path>
</symbol>
</defs>
</svg>
